<svg width="140" height="66" viewBox="0 0 140 66" fill="none" xmlns="http://www.w3.org/2000/svg">
<g filter="url(#filter0_d_1_14)">
<mask id="path-1-outside-1_1_14" maskUnits="userSpaceOnUse" x="3" y="11" width="133" height="28" fill="black">
<rect fill="white" x="3" y="11" width="133" height="28"/>
<path d="M4.44141 37V12.3906H7.5V33.9766H17.6602V37H4.44141ZM19.6289 31.7969V23.1133C19.6289 22.0117 20.1211 20.9336 21.1055 19.8789C22.3242 18.6133 23.8477 17.9805 25.6758 17.9805V20.8281C24.293 20.8281 23.332 21.4023 22.793 22.5508C22.6289 22.9023 22.5469 23.2539 22.5469 23.6055V31.3398C22.5469 32.207 22.9453 32.9453 23.7422 33.5547C24.3047 33.9766 24.9492 34.1875 25.6758 34.1875V37.0352C23.4492 37.0352 21.7266 36.1328 20.5078 34.3281C19.9219 33.4375 19.6289 32.5938 19.6289 31.7969ZM27.1875 37.0352V34.1875C28.4297 34.1875 29.3203 33.625 29.8594 32.5C30.0469 32.125 30.1406 31.7617 30.1406 31.4102V23.6055C30.1406 22.6445 29.7305 21.8828 28.9102 21.3203C28.3945 20.9922 27.8086 20.8281 27.1523 20.8281V17.9805C29.3086 17.9805 30.9727 18.8594 32.1445 20.6172C32.7305 21.4844 33.0234 22.3164 33.0234 23.1133V31.7969C33.0234 32.9453 32.5312 34.0586 31.5469 35.1367C30.3984 36.3789 28.9453 37.0117 27.1875 37.0352ZM35.168 22.4102V19.5273H37.4883V17.4883C37.4883 16.1758 37.9219 14.9805 38.7891 13.9023C39.75 12.7773 40.9922 12.2031 42.5156 12.1797H43.8164L43.1484 15.0273H42.4805C41.1445 15.0977 40.4648 15.918 40.4414 17.4883V19.5625L42.832 19.5273V22.4102H40.4414V37H37.4883V22.4102H35.168ZM44.8008 21.0391V18.1914H47.1211V12.1094H50.1094V18.1914H52.3594V21.0742H50.1094V31.1641C50.1094 32.8281 50.7891 33.7539 52.1484 33.9414C52.4062 33.9883 52.6641 34.0117 52.9219 34.0117H53.4141L54.082 37H52.8164C49.9336 36.9766 48.1641 35.8984 47.5078 33.7656C47.2734 32.9688 47.1562 31.9844 47.1562 30.8125L47.1211 21.0391H44.8008ZM55.6641 37V12.3906H58.7227V23.1133H61.8867V26.1016H58.7227V37H55.6641ZM63.6445 26.1016V23.1133H66.7734V12.3906H69.8672V37H66.7734V26.1016H63.6445ZM72.6094 31.7969V23.1133C72.6094 22.0117 73.1016 20.9336 74.0859 19.8789C75.3047 18.6133 76.8281 17.9805 78.6562 17.9805V20.8281C77.2734 20.8281 76.3125 21.4023 75.7734 22.5508C75.6094 22.9023 75.5273 23.2539 75.5273 23.6055V31.3398C75.5273 32.207 75.9258 32.9453 76.7227 33.5547C77.2852 33.9766 77.9297 34.1875 78.6562 34.1875V37.0352C76.4297 37.0352 74.707 36.1328 73.4883 34.3281C72.9023 33.4375 72.6094 32.5938 72.6094 31.7969ZM80.168 37.0352V34.1875C81.4102 34.1875 82.3008 33.625 82.8398 32.5C83.0273 32.125 83.1211 31.7617 83.1211 31.4102V23.6055C83.1211 22.6445 82.7109 21.8828 81.8906 21.3203C81.375 20.9922 80.7891 20.8281 80.1328 20.8281V17.9805C82.2891 17.9805 83.9531 18.8594 85.125 20.6172C85.7109 21.4844 86.0039 22.3164 86.0039 23.1133V31.7969C86.0039 32.9453 85.5117 34.0586 84.5273 35.1367C83.3789 36.3789 81.9258 37.0117 80.168 37.0352ZM88.6758 31.9375V18.0156H91.6641V31.5859C91.6641 32.4297 92.0859 33.1328 92.9297 33.6953C93.4922 34.0469 94.1133 34.2227 94.793 34.2227V37.1758C92.543 37.1758 90.8086 36.2969 89.5898 34.5391C88.9805 33.6484 88.6758 32.7812 88.6758 31.9375ZM96.3398 37.1758V34.2227C97.6055 34.2227 98.5312 33.7188 99.1172 32.7109C99.3281 32.3359 99.4336 31.9609 99.4336 31.5859V18.0156H102.422V31.9375C102.422 33.0391 101.918 34.1289 100.91 35.207C99.6914 36.4961 98.168 37.1523 96.3398 37.1758ZM104.461 32.0078L107.238 31.4805C107.238 32.5352 107.789 33.3672 108.891 33.9766C109.43 34.2344 109.945 34.375 110.438 34.3984V37.1758C108.164 37.1758 106.465 36.3555 105.34 34.7148C104.754 33.8477 104.461 32.9453 104.461 32.0078ZM104.637 23.3594C104.637 21.2266 105.609 19.6445 107.555 18.6133C108.492 18.1211 109.43 17.875 110.367 17.875V20.6172C109.289 20.6172 108.457 21.0625 107.871 21.9531C107.566 22.3984 107.414 22.8672 107.414 23.3594C107.414 24.1094 108 24.7188 109.172 25.1875C110.062 25.5625 111.785 26.0547 114.34 26.6641C115.934 26.9922 117.07 27.7773 117.75 29.0195C118.102 29.6758 118.277 30.4141 118.277 31.2344C118.277 33.4844 117.375 35.1484 115.57 36.2266C114.516 36.8594 113.309 37.1758 111.949 37.1758V34.3984C113.027 34.3984 113.93 34.0234 114.656 33.2734C115.172 32.7344 115.43 32.1016 115.43 31.375C115.43 30.4375 114.504 29.6875 112.652 29.125C112.184 28.9844 111.434 28.7852 110.402 28.5273C109.301 28.2695 108.504 28.0586 108.012 27.8945C106.23 27.1914 105.152 26.125 104.777 24.6953C104.684 24.2734 104.637 23.8281 104.637 23.3594ZM111.914 20.6523V17.875C113.93 17.875 115.559 18.625 116.801 20.125C117.574 21.0859 117.961 22.0938 117.961 23.1484L115.184 23.6055C115.184 22.3164 114.48 21.4141 113.074 20.8984C112.652 20.7344 112.266 20.6523 111.914 20.6523ZM120.352 31.7969V23.0781C120.375 22 120.891 20.9336 121.898 19.8789C123.117 18.6367 124.594 18.0039 126.328 17.9805V20.7578C125.203 20.7578 124.324 21.25 123.691 22.2344C123.434 22.6562 123.305 23.043 123.305 23.3945V25.7852H131.18V23.3945C131.18 22.3398 130.641 21.5664 129.562 21.0742C129.07 20.8398 128.566 20.7227 128.051 20.7227V17.9805C129.668 17.9805 131.109 18.5547 132.375 19.7031C133.43 20.7109 133.969 21.8242 133.992 23.043V28.6328H123.305V31.7969C123.305 32.4531 123.68 33.0625 124.43 33.625C125.039 34.0469 125.684 34.2578 126.363 34.2578V37C124.23 37 122.555 36.1328 121.336 34.3984C120.68 33.4844 120.352 32.6172 120.352 31.7969ZM128.051 37V34.2227C129.457 34.2227 130.512 33.6133 131.215 32.3945C131.355 32.1367 131.461 31.8906 131.531 31.6562L134.027 32.5703C133.605 34.1875 132.645 35.4062 131.145 36.2266C130.184 36.7422 129.152 37 128.051 37Z"/>
</mask>
<path d="M4.44141 37V12.3906H7.5V33.9766H17.6602V37H4.44141ZM19.6289 31.7969V23.1133C19.6289 22.0117 20.1211 20.9336 21.1055 19.8789C22.3242 18.6133 23.8477 17.9805 25.6758 17.9805V20.8281C24.293 20.8281 23.332 21.4023 22.793 22.5508C22.6289 22.9023 22.5469 23.2539 22.5469 23.6055V31.3398C22.5469 32.207 22.9453 32.9453 23.7422 33.5547C24.3047 33.9766 24.9492 34.1875 25.6758 34.1875V37.0352C23.4492 37.0352 21.7266 36.1328 20.5078 34.3281C19.9219 33.4375 19.6289 32.5938 19.6289 31.7969ZM27.1875 37.0352V34.1875C28.4297 34.1875 29.3203 33.625 29.8594 32.5C30.0469 32.125 30.1406 31.7617 30.1406 31.4102V23.6055C30.1406 22.6445 29.7305 21.8828 28.9102 21.3203C28.3945 20.9922 27.8086 20.8281 27.1523 20.8281V17.9805C29.3086 17.9805 30.9727 18.8594 32.1445 20.6172C32.7305 21.4844 33.0234 22.3164 33.0234 23.1133V31.7969C33.0234 32.9453 32.5312 34.0586 31.5469 35.1367C30.3984 36.3789 28.9453 37.0117 27.1875 37.0352ZM35.168 22.4102V19.5273H37.4883V17.4883C37.4883 16.1758 37.9219 14.9805 38.7891 13.9023C39.75 12.7773 40.9922 12.2031 42.5156 12.1797H43.8164L43.1484 15.0273H42.4805C41.1445 15.0977 40.4648 15.918 40.4414 17.4883V19.5625L42.832 19.5273V22.4102H40.4414V37H37.4883V22.4102H35.168ZM44.8008 21.0391V18.1914H47.1211V12.1094H50.1094V18.1914H52.3594V21.0742H50.1094V31.1641C50.1094 32.8281 50.7891 33.7539 52.1484 33.9414C52.4062 33.9883 52.6641 34.0117 52.9219 34.0117H53.4141L54.082 37H52.8164C49.9336 36.9766 48.1641 35.8984 47.5078 33.7656C47.2734 32.9688 47.1562 31.9844 47.1562 30.8125L47.1211 21.0391H44.8008ZM55.6641 37V12.3906H58.7227V23.1133H61.8867V26.1016H58.7227V37H55.6641ZM63.6445 26.1016V23.1133H66.7734V12.3906H69.8672V37H66.7734V26.1016H63.6445ZM72.6094 31.7969V23.1133C72.6094 22.0117 73.1016 20.9336 74.0859 19.8789C75.3047 18.6133 76.8281 17.9805 78.6562 17.9805V20.8281C77.2734 20.8281 76.3125 21.4023 75.7734 22.5508C75.6094 22.9023 75.5273 23.2539 75.5273 23.6055V31.3398C75.5273 32.207 75.9258 32.9453 76.7227 33.5547C77.2852 33.9766 77.9297 34.1875 78.6562 34.1875V37.0352C76.4297 37.0352 74.707 36.1328 73.4883 34.3281C72.9023 33.4375 72.6094 32.5938 72.6094 31.7969ZM80.168 37.0352V34.1875C81.4102 34.1875 82.3008 33.625 82.8398 32.5C83.0273 32.125 83.1211 31.7617 83.1211 31.4102V23.6055C83.1211 22.6445 82.7109 21.8828 81.8906 21.3203C81.375 20.9922 80.7891 20.8281 80.1328 20.8281V17.9805C82.2891 17.9805 83.9531 18.8594 85.125 20.6172C85.7109 21.4844 86.0039 22.3164 86.0039 23.1133V31.7969C86.0039 32.9453 85.5117 34.0586 84.5273 35.1367C83.3789 36.3789 81.9258 37.0117 80.168 37.0352ZM88.6758 31.9375V18.0156H91.6641V31.5859C91.6641 32.4297 92.0859 33.1328 92.9297 33.6953C93.4922 34.0469 94.1133 34.2227 94.793 34.2227V37.1758C92.543 37.1758 90.8086 36.2969 89.5898 34.5391C88.9805 33.6484 88.6758 32.7812 88.6758 31.9375ZM96.3398 37.1758V34.2227C97.6055 34.2227 98.5312 33.7188 99.1172 32.7109C99.3281 32.3359 99.4336 31.9609 99.4336 31.5859V18.0156H102.422V31.9375C102.422 33.0391 101.918 34.1289 100.91 35.207C99.6914 36.4961 98.168 37.1523 96.3398 37.1758ZM104.461 32.0078L107.238 31.4805C107.238 32.5352 107.789 33.3672 108.891 33.9766C109.43 34.2344 109.945 34.375 110.438 34.3984V37.1758C108.164 37.1758 106.465 36.3555 105.34 34.7148C104.754 33.8477 104.461 32.9453 104.461 32.0078ZM104.637 23.3594C104.637 21.2266 105.609 19.6445 107.555 18.6133C108.492 18.1211 109.43 17.875 110.367 17.875V20.6172C109.289 20.6172 108.457 21.0625 107.871 21.9531C107.566 22.3984 107.414 22.8672 107.414 23.3594C107.414 24.1094 108 24.7188 109.172 25.1875C110.062 25.5625 111.785 26.0547 114.34 26.6641C115.934 26.9922 117.07 27.7773 117.75 29.0195C118.102 29.6758 118.277 30.4141 118.277 31.2344C118.277 33.4844 117.375 35.1484 115.57 36.2266C114.516 36.8594 113.309 37.1758 111.949 37.1758V34.3984C113.027 34.3984 113.93 34.0234 114.656 33.2734C115.172 32.7344 115.43 32.1016 115.43 31.375C115.43 30.4375 114.504 29.6875 112.652 29.125C112.184 28.9844 111.434 28.7852 110.402 28.5273C109.301 28.2695 108.504 28.0586 108.012 27.8945C106.23 27.1914 105.152 26.125 104.777 24.6953C104.684 24.2734 104.637 23.8281 104.637 23.3594ZM111.914 20.6523V17.875C113.93 17.875 115.559 18.625 116.801 20.125C117.574 21.0859 117.961 22.0938 117.961 23.1484L115.184 23.6055C115.184 22.3164 114.48 21.4141 113.074 20.8984C112.652 20.7344 112.266 20.6523 111.914 20.6523ZM120.352 31.7969V23.0781C120.375 22 120.891 20.9336 121.898 19.8789C123.117 18.6367 124.594 18.0039 126.328 17.9805V20.7578C125.203 20.7578 124.324 21.25 123.691 22.2344C123.434 22.6562 123.305 23.043 123.305 23.3945V25.7852H131.18V23.3945C131.18 22.3398 130.641 21.5664 129.562 21.0742C129.07 20.8398 128.566 20.7227 128.051 20.7227V17.9805C129.668 17.9805 131.109 18.5547 132.375 19.7031C133.43 20.7109 133.969 21.8242 133.992 23.043V28.6328H123.305V31.7969C123.305 32.4531 123.68 33.0625 124.43 33.625C125.039 34.0469 125.684 34.2578 126.363 34.2578V37C124.23 37 122.555 36.1328 121.336 34.3984C120.68 33.4844 120.352 32.6172 120.352 31.7969ZM128.051 37V34.2227C129.457 34.2227 130.512 33.6133 131.215 32.3945C131.355 32.1367 131.461 31.8906 131.531 31.6562L134.027 32.5703C133.605 34.1875 132.645 35.4062 131.145 36.2266C130.184 36.7422 129.152 37 128.051 37Z" fill="white"/>
<path d="M4.44141 37H3.44141V38H4.44141V37ZM4.44141 12.3906V11.3906H3.44141V12.3906H4.44141ZM7.5 12.3906H8.5V11.3906H7.5V12.3906ZM7.5 33.9766H6.5V34.9766H7.5V33.9766ZM17.6602 33.9766H18.6602V32.9766H17.6602V33.9766ZM17.6602 37V38H18.6602V37H17.6602ZM5.44141 37V12.3906H3.44141V37H5.44141ZM4.44141 13.3906H7.5V11.3906H4.44141V13.3906ZM6.5 12.3906V33.9766H8.5V12.3906H6.5ZM7.5 34.9766H17.6602V32.9766H7.5V34.9766ZM16.6602 33.9766V37H18.6602V33.9766H16.6602ZM17.6602 36H4.44141V38H17.6602V36ZM21.1055 19.8789L20.3851 19.1853L20.3797 19.1909L20.3744 19.1966L21.1055 19.8789ZM25.6758 17.9805H26.6758V16.9805H25.6758V17.9805ZM25.6758 20.8281V21.8281H26.6758V20.8281H25.6758ZM22.793 22.5508L21.8877 22.1259L21.8868 22.1279L22.793 22.5508ZM23.7422 33.5547L23.1347 34.3491L23.1422 34.3547L23.7422 33.5547ZM25.6758 34.1875H26.6758V33.1875H25.6758V34.1875ZM25.6758 37.0352V38.0352H26.6758V37.0352H25.6758ZM20.5078 34.3281L19.6723 34.8778L19.6791 34.8878L20.5078 34.3281ZM27.1875 37.0352H26.1875V38.0486L27.2008 38.0351L27.1875 37.0352ZM27.1875 34.1875V33.1875H26.1875V34.1875H27.1875ZM29.8594 32.5L28.9649 32.0528L28.9612 32.0603L28.9576 32.0679L29.8594 32.5ZM28.9102 21.3203L29.4757 20.4956L29.4615 20.4859L29.447 20.4767L28.9102 21.3203ZM27.1523 20.8281H26.1523V21.8281H27.1523V20.8281ZM27.1523 17.9805V16.9805H26.1523V17.9805H27.1523ZM32.1445 20.6172L31.3125 21.1719L31.3159 21.177L32.1445 20.6172ZM31.5469 35.1367L32.2812 35.8156L32.2854 35.811L31.5469 35.1367ZM20.6289 31.7969V23.1133H18.6289V31.7969H20.6289ZM20.6289 23.1133C20.6289 22.3356 20.9699 21.4897 21.8365 20.5612L20.3744 19.1966C19.2723 20.3774 18.6289 21.6879 18.6289 23.1133H20.6289ZM21.8258 20.5725C22.8476 19.5114 24.1071 18.9805 25.6758 18.9805V16.9805C23.5882 16.9805 21.8008 17.7152 20.3851 19.1853L21.8258 20.5725ZM24.6758 17.9805V20.8281H26.6758V17.9805H24.6758ZM25.6758 19.8281C24.846 19.8281 24.0732 20.0011 23.405 20.4004C22.7314 20.8029 22.2303 21.3962 21.8877 22.1259L23.6982 22.9757C23.8947 22.557 24.1436 22.2889 24.4309 22.1172C24.7237 21.9423 25.1227 21.8281 25.6758 21.8281V19.8281ZM21.8868 22.1279C21.6674 22.598 21.5469 23.0932 21.5469 23.6055H23.5469C23.5469 23.4146 23.5904 23.2067 23.6992 22.9737L21.8868 22.1279ZM21.5469 23.6055V31.3398H23.5469V23.6055H21.5469ZM21.5469 31.3398C21.5469 32.57 22.1344 33.5841 23.1347 34.349L24.3496 32.7603C23.7562 32.3065 23.5469 31.8441 23.5469 31.3398H21.5469ZM23.1422 34.3547C23.8839 34.911 24.7406 35.1875 25.6758 35.1875V33.1875C25.1578 33.1875 24.7255 33.0422 24.3422 32.7547L23.1422 34.3547ZM24.6758 34.1875V37.0352H26.6758V34.1875H24.6758ZM25.6758 36.0352C23.7725 36.0352 22.3644 35.2905 21.3365 33.7685L19.6791 34.8878C21.0887 36.9751 23.1259 38.0352 25.6758 38.0352V36.0352ZM21.3432 33.7785C20.8292 32.9972 20.6289 32.3426 20.6289 31.7969H18.6289C18.6289 32.8449 19.0146 33.8778 19.6724 34.8777L21.3432 33.7785ZM28.1875 37.0352V34.1875H26.1875V37.0352H28.1875ZM27.1875 35.1875C27.9632 35.1875 28.6892 35.0102 29.3211 34.6111C29.9527 34.2122 30.4255 33.6326 30.7612 32.9321L28.9576 32.0679C28.7541 32.4924 28.5121 32.7566 28.2531 32.9201C27.9944 33.0835 27.654 33.1875 27.1875 33.1875V35.1875ZM30.7538 32.9472C30.9975 32.4599 31.1406 31.9441 31.1406 31.4102H29.1406C29.1406 31.5793 29.0963 31.7901 28.9649 32.0528L30.7538 32.9472ZM31.1406 31.4102V23.6055H29.1406V31.4102H31.1406ZM31.1406 23.6055C31.1406 22.3012 30.5565 21.2367 29.4757 20.4956L28.3446 22.145C28.9044 22.5289 29.1406 22.9878 29.1406 23.6055H31.1406ZM29.447 20.4767C28.759 20.0388 27.9841 19.8281 27.1523 19.8281V21.8281C27.633 21.8281 28.03 21.9455 28.3733 22.164L29.447 20.4767ZM28.1523 20.8281V17.9805H26.1523V20.8281H28.1523ZM27.1523 18.9805C28.9826 18.9805 30.3306 19.6991 31.3125 21.1719L32.9766 20.0625C31.6147 18.0196 29.6346 16.9805 27.1523 16.9805V18.9805ZM31.3159 21.177C31.8247 21.93 32.0234 22.5698 32.0234 23.1133H34.0234C34.0234 22.063 33.6362 21.0387 32.9731 20.0573L31.3159 21.177ZM32.0234 23.1133V31.7969H34.0234V23.1133H32.0234ZM32.0234 31.7969C32.0234 32.6336 31.6718 33.5168 30.8084 34.4624L32.2854 35.811C33.3907 34.6004 34.0234 33.257 34.0234 31.7969H32.0234ZM30.8126 34.4579C29.8583 35.49 28.6699 36.0153 27.1742 36.0352L27.2008 38.0351C29.2207 38.0081 30.9385 37.2678 32.2811 35.8156L30.8126 34.4579ZM35.168 22.4102H34.168V23.4102H35.168V22.4102ZM35.168 19.5273V18.5273H34.168V19.5273H35.168ZM37.4883 19.5273V20.5273H38.4883V19.5273H37.4883ZM38.7891 13.9023L38.0287 13.2529L38.0191 13.2641L38.0098 13.2756L38.7891 13.9023ZM42.5156 12.1797V11.1797H42.5079L42.5002 11.1798L42.5156 12.1797ZM43.8164 12.1797L44.79 12.4081L45.0781 11.1797H43.8164V12.1797ZM43.1484 15.0273V16.0273H43.941L44.122 15.2557L43.1484 15.0273ZM42.4805 15.0273V14.0273H42.4542L42.4279 14.0287L42.4805 15.0273ZM40.4414 17.4883L39.4415 17.4734L39.4414 17.4808V17.4883H40.4414ZM40.4414 19.5625H39.4414V20.5773L40.4561 20.5624L40.4414 19.5625ZM42.832 19.5273H43.832V18.5125L42.8173 18.5275L42.832 19.5273ZM42.832 22.4102V23.4102H43.832V22.4102H42.832ZM40.4414 22.4102V21.4102H39.4414V22.4102H40.4414ZM40.4414 37V38H41.4414V37H40.4414ZM37.4883 37H36.4883V38H37.4883V37ZM37.4883 22.4102H38.4883V21.4102H37.4883V22.4102ZM36.168 22.4102V19.5273H34.168V22.4102H36.168ZM35.168 20.5273H37.4883V18.5273H35.168V20.5273ZM38.4883 19.5273V17.4883H36.4883V19.5273H38.4883ZM38.4883 17.4883C38.4883 16.4167 38.8356 15.44 39.5683 14.5291L38.0098 13.2756C37.0081 14.521 36.4883 15.9348 36.4883 17.4883H38.4883ZM39.5494 14.5518C40.3176 13.6525 41.2849 13.1987 42.531 13.1796L42.5002 11.1798C40.6995 11.2075 39.1824 11.9022 38.0287 13.2529L39.5494 14.5518ZM42.5156 13.1797H43.8164V11.1797H42.5156V13.1797ZM42.8428 11.9513L42.1749 14.799L44.122 15.2557L44.79 12.4081L42.8428 11.9513ZM43.1484 14.0273H42.4805V16.0273H43.1484V14.0273ZM42.4279 14.0287C41.5572 14.0746 40.7603 14.3795 40.1987 15.0573C39.6586 15.7092 39.4551 16.5646 39.4415 17.4734L41.4413 17.5032C41.4512 16.8416 41.5992 16.5018 41.7388 16.3333C41.8568 16.1908 42.0678 16.0504 42.533 16.026L42.4279 14.0287ZM39.4414 17.4883V19.5625H41.4414V17.4883H39.4414ZM40.4561 20.5624L42.8467 20.5272L42.8173 18.5275L40.4267 18.5626L40.4561 20.5624ZM41.832 19.5273V22.4102H43.832V19.5273H41.832ZM42.832 21.4102H40.4414V23.4102H42.832V21.4102ZM39.4414 22.4102V37H41.4414V22.4102H39.4414ZM40.4414 36H37.4883V38H40.4414V36ZM38.4883 37V22.4102H36.4883V37H38.4883ZM37.4883 21.4102H35.168V23.4102H37.4883V21.4102ZM44.8008 21.0391H43.8008V22.0391H44.8008V21.0391ZM44.8008 18.1914V17.1914H43.8008V18.1914H44.8008ZM47.1211 18.1914V19.1914H48.1211V18.1914H47.1211ZM47.1211 12.1094V11.1094H46.1211V12.1094H47.1211ZM50.1094 12.1094H51.1094V11.1094H50.1094V12.1094ZM50.1094 18.1914H49.1094V19.1914H50.1094V18.1914ZM52.3594 18.1914H53.3594V17.1914H52.3594V18.1914ZM52.3594 21.0742V22.0742H53.3594V21.0742H52.3594ZM50.1094 21.0742V20.0742H49.1094V21.0742H50.1094ZM52.1484 33.9414L52.3273 32.9575L52.3063 32.9537L52.2851 32.9508L52.1484 33.9414ZM53.4141 34.0117L54.39 33.7936L54.2152 33.0117H53.4141V34.0117ZM54.082 37V38H55.3302L55.0579 36.7819L54.082 37ZM52.8164 37L52.8083 38H52.8164V37ZM47.5078 33.7656L46.5484 34.0478L46.552 34.0597L47.5078 33.7656ZM47.1562 30.8125L48.1563 30.8125L48.1562 30.8089L47.1562 30.8125ZM47.1211 21.0391L48.1211 21.0355L48.1175 20.0391H47.1211V21.0391ZM45.8008 21.0391V18.1914H43.8008V21.0391H45.8008ZM44.8008 19.1914H47.1211V17.1914H44.8008V19.1914ZM48.1211 18.1914V12.1094H46.1211V18.1914H48.1211ZM47.1211 13.1094H50.1094V11.1094H47.1211V13.1094ZM49.1094 12.1094V18.1914H51.1094V12.1094H49.1094ZM50.1094 19.1914H52.3594V17.1914H50.1094V19.1914ZM51.3594 18.1914V21.0742H53.3594V18.1914H51.3594ZM52.3594 20.0742H50.1094V22.0742H52.3594V20.0742ZM49.1094 21.0742V31.1641H51.1094V21.0742H49.1094ZM49.1094 31.1641C49.1094 32.1171 49.302 33.0022 49.8131 33.6983C50.3437 34.421 51.1204 34.8091 52.0118 34.932L52.2851 32.9508C51.8171 32.8862 51.5743 32.7177 51.4252 32.5146C51.2566 32.285 51.1094 31.875 51.1094 31.1641H49.1094ZM51.9696 34.9253C52.2854 34.9827 52.6031 35.0117 52.9219 35.0117V33.0117C52.725 33.0117 52.5271 32.9939 52.3273 32.9575L51.9696 34.9253ZM52.9219 35.0117H53.4141V33.0117H52.9219V35.0117ZM52.4381 34.2299L53.1061 37.2181L55.0579 36.7819L54.39 33.7936L52.4381 34.2299ZM54.082 36H52.8164V38H54.082V36ZM52.8245 36C51.4963 35.9892 50.5288 35.735 49.8475 35.3198C49.1882 34.9182 48.7258 34.3239 48.4636 33.4715L46.552 34.0597C46.946 35.3402 47.6966 36.3514 48.8068 37.0278C49.895 37.6908 51.2537 37.9873 52.8083 38L52.8245 36ZM48.4672 33.4835C48.2683 32.8072 48.1562 31.9247 48.1562 30.8125H46.1562C46.1562 32.044 46.2786 33.1303 46.5484 34.0478L48.4672 33.4835ZM48.1562 30.8089L48.1211 21.0355L46.1211 21.0427L46.1563 30.8161L48.1562 30.8089ZM47.1211 20.0391H44.8008V22.0391H47.1211V20.0391ZM55.6641 37H54.6641V38H55.6641V37ZM55.6641 12.3906V11.3906H54.6641V12.3906H55.6641ZM58.7227 12.3906H59.7227V11.3906H58.7227V12.3906ZM58.7227 23.1133H57.7227V24.1133H58.7227V23.1133ZM61.8867 23.1133H62.8867V22.1133H61.8867V23.1133ZM61.8867 26.1016V27.1016H62.8867V26.1016H61.8867ZM58.7227 26.1016V25.1016H57.7227V26.1016H58.7227ZM58.7227 37V38H59.7227V37H58.7227ZM63.6445 26.1016H62.6445V27.1016H63.6445V26.1016ZM63.6445 23.1133V22.1133H62.6445V23.1133H63.6445ZM66.7734 23.1133V24.1133H67.7734V23.1133H66.7734ZM66.7734 12.3906V11.3906H65.7734V12.3906H66.7734ZM69.8672 12.3906H70.8672V11.3906H69.8672V12.3906ZM69.8672 37V38H70.8672V37H69.8672ZM66.7734 37H65.7734V38H66.7734V37ZM66.7734 26.1016H67.7734V25.1016H66.7734V26.1016ZM56.6641 37V12.3906H54.6641V37H56.6641ZM55.6641 13.3906H58.7227V11.3906H55.6641V13.3906ZM57.7227 12.3906V23.1133H59.7227V12.3906H57.7227ZM58.7227 24.1133H61.8867V22.1133H58.7227V24.1133ZM60.8867 23.1133V26.1016H62.8867V23.1133H60.8867ZM61.8867 25.1016H58.7227V27.1016H61.8867V25.1016ZM57.7227 26.1016V37H59.7227V26.1016H57.7227ZM58.7227 36H55.6641V38H58.7227V36ZM64.6445 26.1016V23.1133H62.6445V26.1016H64.6445ZM63.6445 24.1133H66.7734V22.1133H63.6445V24.1133ZM67.7734 23.1133V12.3906H65.7734V23.1133H67.7734ZM66.7734 13.3906H69.8672V11.3906H66.7734V13.3906ZM68.8672 12.3906V37H70.8672V12.3906H68.8672ZM69.8672 36H66.7734V38H69.8672V36ZM67.7734 37V26.1016H65.7734V37H67.7734ZM66.7734 25.1016H63.6445V27.1016H66.7734V25.1016ZM74.0859 19.8789L73.3656 19.1853L73.3602 19.1909L73.3549 19.1966L74.0859 19.8789ZM78.6562 17.9805H79.6562V16.9805H78.6562V17.9805ZM78.6562 20.8281V21.8281H79.6562V20.8281H78.6562ZM75.7734 22.5508L74.8682 22.1259L74.8673 22.1279L75.7734 22.5508ZM76.7227 33.5547L76.1152 34.3491L76.1227 34.3547L76.7227 33.5547ZM78.6562 34.1875H79.6562V33.1875H78.6562V34.1875ZM78.6562 37.0352V38.0352H79.6562V37.0352H78.6562ZM73.4883 34.3281L72.6528 34.8778L72.6596 34.8878L73.4883 34.3281ZM80.168 37.0352H79.168V38.0486L80.1813 38.0351L80.168 37.0352ZM80.168 34.1875V33.1875H79.168V34.1875H80.168ZM82.8398 32.5L81.9454 32.0528L81.9417 32.0603L81.938 32.0679L82.8398 32.5ZM81.8906 21.3203L82.4562 20.4956L82.442 20.4859L82.4275 20.4767L81.8906 21.3203ZM80.1328 20.8281H79.1328V21.8281H80.1328V20.8281ZM80.1328 17.9805V16.9805H79.1328V17.9805H80.1328ZM85.125 20.6172L84.2929 21.1719L84.2964 21.177L85.125 20.6172ZM84.5273 35.1367L85.2616 35.8156L85.2658 35.811L84.5273 35.1367ZM73.6094 31.7969V23.1133H71.6094V31.7969H73.6094ZM73.6094 23.1133C73.6094 22.3356 73.9504 21.4897 74.817 20.5612L73.3549 19.1966C72.2527 20.3774 71.6094 21.6879 71.6094 23.1133H73.6094ZM74.8063 20.5725C75.8281 19.5114 77.0875 18.9805 78.6562 18.9805V16.9805C76.5687 16.9805 74.7813 17.7152 73.3656 19.1853L74.8063 20.5725ZM77.6562 17.9805V20.8281H79.6562V17.9805H77.6562ZM78.6562 19.8281C77.8265 19.8281 77.0537 20.0011 76.3855 20.4004C75.7118 20.8029 75.2107 21.3962 74.8682 22.1259L76.6787 22.9757C76.8752 22.557 77.1241 22.2889 77.4114 22.1172C77.7041 21.9423 78.1032 21.8281 78.6562 21.8281V19.8281ZM74.8673 22.1279C74.6479 22.598 74.5273 23.0932 74.5273 23.6055H76.5273C76.5273 23.4146 76.5709 23.2067 76.6796 22.9737L74.8673 22.1279ZM74.5273 23.6055V31.3398H76.5273V23.6055H74.5273ZM74.5273 31.3398C74.5273 32.57 75.1149 33.5841 76.1152 34.349L77.3301 32.7603C76.7367 32.3065 76.5273 31.8441 76.5273 31.3398H74.5273ZM76.1227 34.3547C76.8643 34.911 77.7211 35.1875 78.6562 35.1875V33.1875C78.1383 33.1875 77.706 33.0422 77.3227 32.7547L76.1227 34.3547ZM77.6562 34.1875V37.0352H79.6562V34.1875H77.6562ZM78.6562 36.0352C76.753 36.0352 75.3449 35.2905 74.317 33.7685L72.6596 34.8878C74.0692 36.9751 76.1064 38.0352 78.6562 38.0352V36.0352ZM74.3237 33.7785C73.8097 32.9972 73.6094 32.3426 73.6094 31.7969H71.6094C71.6094 32.8449 71.995 33.8778 72.6529 34.8777L74.3237 33.7785ZM81.168 37.0352V34.1875H79.168V37.0352H81.168ZM80.168 35.1875C80.9437 35.1875 81.6697 35.0102 82.3016 34.6111C82.9332 34.2122 83.406 33.6326 83.7417 32.9321L81.938 32.0679C81.7346 32.4924 81.4926 32.7566 81.2336 32.9201C80.9749 33.0835 80.6344 33.1875 80.168 33.1875V35.1875ZM83.7343 32.9472C83.9779 32.4599 84.1211 31.9441 84.1211 31.4102H82.1211C82.1211 31.5793 82.0767 31.7901 81.9454 32.0528L83.7343 32.9472ZM84.1211 31.4102V23.6055H82.1211V31.4102H84.1211ZM84.1211 23.6055C84.1211 22.3012 83.537 21.2367 82.4562 20.4956L81.3251 22.145C81.8849 22.5289 82.1211 22.9878 82.1211 23.6055H84.1211ZM82.4275 20.4767C81.7395 20.0388 80.9646 19.8281 80.1328 19.8281V21.8281C80.6135 21.8281 81.0105 21.9455 81.3537 22.164L82.4275 20.4767ZM81.1328 20.8281V17.9805H79.1328V20.8281H81.1328ZM80.1328 18.9805C81.963 18.9805 83.3111 19.6991 84.2929 21.1719L85.9571 20.0625C84.5951 18.0196 82.6151 16.9805 80.1328 16.9805V18.9805ZM84.2964 21.177C84.8052 21.93 85.0039 22.5698 85.0039 23.1133H87.0039C87.0039 22.063 86.6167 21.0387 85.9536 20.0573L84.2964 21.177ZM85.0039 23.1133V31.7969H87.0039V23.1133H85.0039ZM85.0039 31.7969C85.0039 32.6336 84.6523 33.5168 83.7889 34.4624L85.2658 35.811C86.3712 34.6004 87.0039 33.257 87.0039 31.7969H85.0039ZM83.7931 34.4579C82.8388 35.49 81.6504 36.0153 80.1546 36.0352L80.1813 38.0351C82.2012 38.0081 83.919 37.2678 85.2616 35.8156L83.7931 34.4579ZM88.6758 18.0156V17.0156H87.6758V18.0156H88.6758ZM91.6641 18.0156H92.6641V17.0156H91.6641V18.0156ZM92.9297 33.6953L92.375 34.5274L92.3872 34.5355L92.3997 34.5433L92.9297 33.6953ZM94.793 34.2227H95.793V33.2227H94.793V34.2227ZM94.793 37.1758V38.1758H95.793V37.1758H94.793ZM89.5898 34.5391L88.7645 35.1038L88.768 35.1088L89.5898 34.5391ZM96.3398 37.1758H95.3398V38.1887L96.3527 38.1757L96.3398 37.1758ZM96.3398 34.2227V33.2227H95.3398V34.2227H96.3398ZM99.1172 32.7109L99.9817 33.2136L99.9853 33.2074L99.9888 33.2012L99.1172 32.7109ZM99.4336 18.0156V17.0156H98.4336V18.0156H99.4336ZM102.422 18.0156H103.422V17.0156H102.422V18.0156ZM100.91 35.207L101.637 35.8941L101.641 35.8899L100.91 35.207ZM89.6758 31.9375V18.0156H87.6758V31.9375H89.6758ZM88.6758 19.0156H91.6641V17.0156H88.6758V19.0156ZM90.6641 18.0156V31.5859H92.6641V18.0156H90.6641ZM90.6641 31.5859C90.6641 32.8348 91.3175 33.8224 92.375 34.5274L93.4844 32.8633C92.8544 32.4432 92.6641 32.0246 92.6641 31.5859H90.6641ZM92.3997 34.5433C93.1252 34.9968 93.9307 35.2227 94.793 35.2227V33.2227C94.2958 33.2227 93.8592 33.097 93.4597 32.8473L92.3997 34.5433ZM93.793 34.2227V37.1758H95.793V34.2227H93.793ZM94.793 36.1758C92.8507 36.1758 91.4324 35.4415 90.4116 33.9693L88.768 35.1088C90.1848 37.1523 92.2352 38.1758 94.793 38.1758V36.1758ZM90.4152 33.9744C89.8879 33.2038 89.6758 32.5301 89.6758 31.9375H87.6758C87.6758 33.0324 88.073 34.0931 88.7645 35.1037L90.4152 33.9744ZM97.3398 37.1758V34.2227H95.3398V37.1758H97.3398ZM96.3398 35.2227C97.9246 35.2227 99.1988 34.5601 99.9817 33.2136L98.2527 32.2083C97.8637 32.8774 97.2864 33.2227 96.3398 33.2227V35.2227ZM99.9888 33.2012C100.271 32.6988 100.434 32.1566 100.434 31.5859H98.4336C98.4336 31.7653 98.3849 31.973 98.2456 32.2207L99.9888 33.2012ZM100.434 31.5859V18.0156H98.4336V31.5859H100.434ZM99.4336 19.0156H102.422V17.0156H99.4336V19.0156ZM101.422 18.0156V31.9375H103.422V18.0156H101.422ZM101.422 31.9375C101.422 32.7095 101.074 33.567 100.18 34.5241L101.641 35.8899C102.762 34.6908 103.422 33.3687 103.422 31.9375H101.422ZM100.184 34.52C99.1569 35.6059 97.894 36.1558 96.327 36.1759L96.3527 38.1757C98.442 38.1489 100.226 37.3863 101.637 35.894L100.184 34.52ZM104.461 32.0078L104.274 31.0254L103.461 31.1798V32.0078H104.461ZM107.238 31.4805H108.238V30.2727L107.052 30.498L107.238 31.4805ZM108.891 33.9766L108.407 34.8516L108.432 34.8659L108.459 34.8787L108.891 33.9766ZM110.438 34.3984H111.438V33.4449L110.485 33.3996L110.438 34.3984ZM110.438 37.1758V38.1758H111.438V37.1758H110.438ZM105.34 34.7148L104.511 35.2747L104.515 35.2804L105.34 34.7148ZM107.555 18.6133L107.09 17.7279L107.086 17.7298L107.555 18.6133ZM110.367 17.875H111.367V16.875H110.367V17.875ZM110.367 20.6172V21.6172H111.367V20.6172H110.367ZM107.871 21.9531L108.696 22.5178L108.702 22.5103L108.707 22.5027L107.871 21.9531ZM109.172 25.1875L109.56 24.2659L109.552 24.2624L109.543 24.259L109.172 25.1875ZM114.34 26.6641L114.108 27.6368L114.123 27.6404L114.138 27.6435L114.34 26.6641ZM117.75 29.0195L118.632 28.5473L118.627 28.5395L117.75 29.0195ZM115.57 36.2266L115.057 35.3681L115.056 35.3691L115.57 36.2266ZM111.949 37.1758H110.949V38.1758H111.949V37.1758ZM111.949 34.3984V33.3984H110.949V34.3984H111.949ZM114.656 33.2734L115.375 33.9692L115.379 33.9647L114.656 33.2734ZM112.652 29.125L112.943 28.1682L112.94 28.1672L112.652 29.125ZM110.402 28.5273L110.645 27.5572L110.638 27.5554L110.63 27.5537L110.402 28.5273ZM108.012 27.8945L107.645 28.8247L107.67 28.8346L107.695 28.8432L108.012 27.8945ZM104.777 24.6953L103.801 24.9122L103.805 24.9307L103.81 24.949L104.777 24.6953ZM111.914 20.6523H110.914V21.6523H111.914V20.6523ZM111.914 17.875V16.875H110.914V17.875H111.914ZM116.801 20.125L117.58 19.4979L117.571 19.4872L116.801 20.125ZM117.961 23.1484L118.123 24.1352L118.961 23.9973V23.1484H117.961ZM115.184 23.6055H114.184V24.7835L115.346 24.5922L115.184 23.6055ZM113.074 20.8984L112.712 21.8304L112.721 21.834L112.73 21.8373L113.074 20.8984ZM104.647 32.9903L107.425 32.4629L107.052 30.498L104.274 31.0254L104.647 32.9903ZM106.238 31.4805C106.238 32.9759 107.06 34.1068 108.407 34.8516L109.375 33.1015C108.518 32.6276 108.238 32.0944 108.238 31.4805H106.238ZM108.459 34.8787C109.094 35.1821 109.74 35.3663 110.39 35.3973L110.485 33.3996C110.151 33.3837 109.766 33.2867 109.322 33.0744L108.459 34.8787ZM109.438 34.3984V37.1758H111.438V34.3984H109.438ZM110.438 36.1758C108.439 36.1758 107.074 35.4758 106.165 34.1493L104.515 35.2804C105.855 37.2351 107.889 38.1758 110.438 38.1758V36.1758ZM106.168 34.155C105.681 33.4332 105.461 32.7229 105.461 32.0078H103.461C103.461 33.1677 103.827 34.2622 104.511 35.2747L106.168 34.155ZM105.637 23.3594C105.637 22.4499 105.842 21.7082 106.218 21.097C106.595 20.484 107.179 19.9445 108.023 19.4968L107.086 17.7298C105.985 18.3133 105.11 19.0804 104.514 20.0495C103.917 21.0203 103.637 22.1361 103.637 23.3594H105.637ZM108.02 19.4987C108.832 19.0719 109.612 18.875 110.367 18.875V16.875C109.248 16.875 108.152 17.1703 107.09 17.7279L108.02 19.4987ZM109.367 17.875V20.6172H111.367V17.875H109.367ZM110.367 19.6172C108.957 19.6172 107.809 20.2279 107.036 21.4035L108.707 22.5027C109.105 21.8971 109.621 21.6172 110.367 21.6172V19.6172ZM107.046 21.3884C106.639 21.9833 106.414 22.6463 106.414 23.3594H108.414C108.414 23.0881 108.494 22.8135 108.696 22.5178L107.046 21.3884ZM106.414 23.3594C106.414 24.7572 107.535 25.6097 108.8 26.116L109.543 24.259C108.465 23.8278 108.414 23.4616 108.414 23.3594H106.414ZM108.784 26.1091C109.761 26.5206 111.561 27.0292 114.108 27.6368L114.572 25.6914C112.01 25.0802 110.364 24.6044 109.56 24.2659L108.784 26.1091ZM114.138 27.6435C115.492 27.9223 116.356 28.5549 116.873 29.4995L118.627 28.5395C117.785 26.9998 116.375 26.0621 114.541 25.6846L114.138 27.6435ZM116.869 29.4918C117.135 29.9884 117.277 30.5617 117.277 31.2344H119.277C119.277 30.2664 119.069 29.3632 118.631 28.5473L116.869 29.4918ZM117.277 31.2344C117.277 33.1625 116.535 34.4854 115.057 35.3681L116.083 37.085C118.215 35.8115 119.277 33.8063 119.277 31.2344H117.277ZM115.056 35.3691C114.173 35.899 113.147 36.1758 111.949 36.1758V38.1758C113.47 38.1758 114.859 37.8197 116.085 37.0841L115.056 35.3691ZM112.949 37.1758V34.3984H110.949V37.1758H112.949ZM111.949 35.3984C113.288 35.3984 114.453 34.9207 115.374 33.9692L113.938 32.5776C113.407 33.1262 112.766 33.3984 111.949 33.3984V35.3984ZM115.379 33.9647C116.067 33.245 116.43 32.3666 116.43 31.375H114.43C114.43 31.8365 114.277 32.2237 113.934 32.5822L115.379 33.9647ZM116.43 31.375C116.43 30.5257 115.993 29.8413 115.365 29.3324C114.758 28.8411 113.925 28.4664 112.943 28.1682L112.362 30.0818C113.231 30.3461 113.786 30.6276 114.106 30.8864C114.403 31.1275 114.43 31.2868 114.43 31.375H116.43ZM112.94 28.1672C112.447 28.0194 111.678 27.8155 110.645 27.5572L110.16 29.4975C111.189 29.7548 111.92 29.9493 112.365 30.0828L112.94 28.1672ZM110.63 27.5537C109.532 27.2967 108.773 27.0944 108.328 26.9458L107.695 28.8432C108.234 29.0228 109.069 29.2424 110.174 29.501L110.63 27.5537ZM108.379 26.9644C106.798 26.3402 106.016 25.4749 105.745 24.4416L103.81 24.949C104.289 26.7751 105.663 28.0426 107.645 28.8247L108.379 26.9644ZM105.754 24.4784C105.677 24.1335 105.637 23.7613 105.637 23.3594H103.637C103.637 23.895 103.69 24.4134 103.801 24.9122L105.754 24.4784ZM112.914 20.6523V17.875H110.914V20.6523H112.914ZM111.914 18.875C113.644 18.875 114.986 19.5013 116.031 20.7628L117.571 19.4872C116.131 17.7487 114.216 16.875 111.914 16.875V18.875ZM116.022 20.752C116.678 21.5668 116.961 22.3592 116.961 23.1484H118.961C118.961 21.8283 118.471 20.6051 117.58 19.498L116.022 20.752ZM117.799 22.1617L115.021 22.6187L115.346 24.5922L118.123 24.1352L117.799 22.1617ZM116.184 23.6055C116.184 22.768 115.951 21.9962 115.445 21.3473C114.948 20.7095 114.244 20.2622 113.418 19.9596L112.73 21.8373C113.311 22.0503 113.661 22.312 113.867 22.5766C114.065 22.83 114.184 23.1539 114.184 23.6055H116.184ZM113.437 19.9664C112.931 19.7698 112.42 19.6523 111.914 19.6523V21.6523C112.112 21.6523 112.374 21.699 112.712 21.8304L113.437 19.9664ZM120.352 23.0781L119.352 23.0564L119.352 23.0673V23.0781H120.352ZM121.898 19.8789L121.185 19.1785L121.175 19.188L121.898 19.8789ZM126.328 17.9805H127.328V16.9669L126.315 16.9806L126.328 17.9805ZM126.328 20.7578V21.7578H127.328V20.7578H126.328ZM123.691 22.2344L122.85 21.6936L122.844 21.7032L122.838 21.7129L123.691 22.2344ZM123.305 25.7852H122.305V26.7852H123.305V25.7852ZM131.18 25.7852V26.7852H132.18V25.7852H131.18ZM129.562 21.0742L129.133 21.9771L129.14 21.9806L129.147 21.9839L129.562 21.0742ZM128.051 20.7227H127.051V21.7227H128.051V20.7227ZM128.051 17.9805V16.9805H127.051V17.9805H128.051ZM132.375 19.7031L133.066 18.9801L133.057 18.9712L133.047 18.9626L132.375 19.7031ZM133.992 23.043H134.992V23.0334L134.992 23.0237L133.992 23.043ZM133.992 28.6328V29.6328H134.992V28.6328H133.992ZM123.305 28.6328V27.6328H122.305V28.6328H123.305ZM124.43 33.625L123.83 34.425L123.845 34.4364L123.86 34.4472L124.43 33.625ZM126.363 34.2578H127.363V33.2578H126.363V34.2578ZM126.363 37V38H127.363V37H126.363ZM121.336 34.3984L122.154 33.8235L122.148 33.8152L121.336 34.3984ZM128.051 37H127.051V38H128.051V37ZM128.051 34.2227V33.2227H127.051V34.2227H128.051ZM131.215 32.3945L132.081 32.8943L132.087 32.8839L132.093 32.8734L131.215 32.3945ZM131.531 31.6562L131.875 30.7172L130.878 30.3522L130.573 31.3689L131.531 31.6562ZM134.027 32.5703L134.995 32.8227L135.224 31.9437L134.371 31.6313L134.027 32.5703ZM131.145 36.2266L131.617 37.1078L131.624 37.1039L131.145 36.2266ZM121.352 31.7969V23.0781H119.352V31.7969H121.352ZM121.351 23.0999C121.368 22.3484 121.724 21.5084 122.621 20.5698L121.175 19.188C120.057 20.3587 119.382 21.6516 119.352 23.0564L121.351 23.0999ZM122.612 20.5792C123.647 19.5247 124.872 19.0002 126.342 18.9804L126.315 16.9806C124.315 17.0076 122.587 17.7487 121.185 19.1786L122.612 20.5792ZM125.328 17.9805V20.7578H127.328V17.9805H125.328ZM126.328 19.7578C124.847 19.7578 123.658 20.4369 122.85 21.6936L124.533 22.7751C124.99 22.0631 125.56 21.7578 126.328 21.7578V19.7578ZM122.838 21.7129C122.522 22.231 122.305 22.7988 122.305 23.3945H124.305C124.305 23.2872 124.346 23.0815 124.545 22.7558L122.838 21.7129ZM122.305 23.3945V25.7852H124.305V23.3945H122.305ZM123.305 26.7852H131.18V24.7852H123.305V26.7852ZM132.18 25.7852V23.3945H130.18V25.7852H132.18ZM132.18 23.3945C132.18 22.688 131.996 22.0257 131.596 21.4516C131.201 20.8848 130.638 20.4661 129.978 20.1645L129.147 21.9839C129.565 22.1745 129.811 22.3887 129.955 22.5952C130.094 22.7946 130.18 23.0464 130.18 23.3945H132.18ZM129.992 20.1714C129.374 19.8768 128.724 19.7227 128.051 19.7227V21.7227C128.409 21.7227 128.767 21.8029 129.133 21.9771L129.992 20.1714ZM129.051 20.7227V17.9805H127.051V20.7227H129.051ZM128.051 18.9805C129.404 18.9805 130.61 19.4518 131.703 20.4437L133.047 18.9626C131.609 17.6575 129.931 16.9805 128.051 16.9805V18.9805ZM131.684 20.4261C132.587 21.2887 132.975 22.1612 132.992 23.0622L134.992 23.0237C134.962 21.4872 134.273 20.1332 133.066 18.9801L131.684 20.4261ZM132.992 23.043V28.6328H134.992V23.043H132.992ZM133.992 27.6328H123.305V29.6328H133.992V27.6328ZM122.305 28.6328V31.7969H124.305V28.6328H122.305ZM122.305 31.7969C122.305 32.8874 122.942 33.7592 123.83 34.425L125.03 32.825C124.417 32.3658 124.305 32.0189 124.305 31.7969H122.305ZM123.86 34.4472C124.621 34.9739 125.462 35.2578 126.363 35.2578V33.2578C125.905 33.2578 125.457 33.1199 124.999 32.8028L123.86 34.4472ZM125.363 34.2578V37H127.363V34.2578H125.363ZM126.363 36C124.554 36 123.184 35.2894 122.154 33.8235L120.518 34.9734C121.925 36.9762 123.907 38 126.363 38V36ZM122.148 33.8152C121.57 33.0093 121.352 32.3429 121.352 31.7969H119.352C119.352 32.8915 119.79 33.9594 120.524 34.9816L122.148 33.8152ZM129.051 37V34.2227H127.051V37H129.051ZM128.051 35.2227C129.815 35.2227 131.199 34.4223 132.081 32.8943L130.349 31.8948C129.824 32.8042 129.099 33.2227 128.051 33.2227V35.2227ZM132.093 32.8734C132.26 32.5664 132.395 32.256 132.489 31.9436L130.573 31.3689C130.527 31.5252 130.451 31.7071 130.337 31.9157L132.093 32.8734ZM131.187 32.5953L133.683 33.5093L134.371 31.6313L131.875 30.7172L131.187 32.5953ZM133.06 32.3179C132.709 33.6616 131.929 34.6577 130.665 35.3492L131.624 37.1039C133.36 36.1548 134.502 34.7134 134.995 32.8227L133.06 32.3179ZM130.672 35.3454C129.858 35.7822 128.989 36 128.051 36V38C129.316 38 130.509 37.7022 131.617 37.1077L130.672 35.3454Z" fill="black" mask="url(#path-1-outside-1_1_14)"/>
</g>
<path d="M3.312 63L6.624 58.608L3.516 54.48H4.5L7.332 58.272H8.496V54.48H9.324V58.272H10.476L13.32 54.48H14.304L11.184 58.608L14.496 63H13.524L10.5 59.04H9.324V63H8.496V59.04H7.308L4.284 63H3.312ZM17.3802 63V54.48H18.2082V61.848L23.4882 54.48H24.2682V63H23.4402V55.764L18.2202 63H17.3802ZM33.6494 63V55.224H30.1694L30.1214 57.024C30.0814 58.2 29.9974 59.176 29.8694 59.952C29.7414 60.728 29.5614 61.34 29.3294 61.788C29.0974 62.228 28.8134 62.544 28.4774 62.736C28.1414 62.92 27.7414 63.012 27.2774 63.012V62.268C27.5894 62.268 27.8654 62.188 28.1054 62.028C28.3454 61.868 28.5494 61.588 28.7174 61.188C28.8854 60.788 29.0174 60.236 29.1134 59.532C29.2174 58.82 29.2854 57.92 29.3174 56.832L29.3894 54.48H34.4774V63H33.6494ZM41.4802 63.06C40.8802 63.06 40.3362 62.94 39.8482 62.7C39.3602 62.46 38.9402 62.136 38.5882 61.728C38.2362 61.312 37.9642 60.848 37.7722 60.336C37.5802 59.816 37.4842 59.284 37.4842 58.74C37.4842 58.172 37.5842 57.632 37.7842 57.12C37.9842 56.6 38.2642 56.14 38.6242 55.74C38.9922 55.332 39.4202 55.012 39.9082 54.78C40.3962 54.54 40.9242 54.42 41.4922 54.42C42.0922 54.42 42.6362 54.544 43.1242 54.792C43.6122 55.04 44.0282 55.372 44.3722 55.788C44.7242 56.204 44.9962 56.668 45.1882 57.18C45.3802 57.692 45.4762 58.216 45.4762 58.752C45.4762 59.32 45.3762 59.864 45.1762 60.384C44.9762 60.896 44.6962 61.356 44.3362 61.764C43.9762 62.164 43.5522 62.48 43.0642 62.712C42.5762 62.944 42.0482 63.06 41.4802 63.06ZM38.3242 58.74C38.3242 59.204 38.4002 59.652 38.5522 60.084C38.7042 60.508 38.9202 60.888 39.2002 61.224C39.4802 61.552 39.8122 61.816 40.1962 62.016C40.5882 62.208 41.0162 62.304 41.4802 62.304C41.9682 62.304 42.4042 62.204 42.7882 62.004C43.1802 61.796 43.5122 61.524 43.7842 61.188C44.0642 60.844 44.2762 60.46 44.4202 60.036C44.5642 59.612 44.6362 59.18 44.6362 58.74C44.6362 58.276 44.5602 57.832 44.4082 57.408C44.2562 56.984 44.0362 56.604 43.7482 56.268C43.4682 55.932 43.1362 55.668 42.7522 55.476C42.3682 55.284 41.9442 55.188 41.4802 55.188C41.0002 55.188 40.5642 55.288 40.1722 55.488C39.7882 55.688 39.4562 55.96 39.1762 56.304C38.9042 56.64 38.6922 57.02 38.5402 57.444C38.3962 57.868 38.3242 58.3 38.3242 58.74ZM48.5479 63V54.48H49.3759V61.848L54.6559 54.48H55.4359V63H54.6079V55.764L49.3879 63H48.5479ZM52.0039 53.76C51.6119 53.76 51.2799 53.704 51.0079 53.592C50.7439 53.472 50.5439 53.312 50.4079 53.112C50.2719 52.904 50.1999 52.68 50.1919 52.44H50.8519C50.8599 52.648 50.9439 52.836 51.1039 53.004C51.2719 53.172 51.5719 53.256 52.0039 53.256C52.4199 53.256 52.7119 53.18 52.8799 53.028C53.0479 52.868 53.1359 52.672 53.1439 52.44H53.8039C53.7959 52.68 53.7239 52.904 53.5879 53.112C53.4519 53.312 53.2519 53.472 52.9879 53.592C52.7319 53.704 52.4039 53.76 52.0039 53.76ZM63.5557 63V54.48H64.3957V58.272H65.6797L68.6077 54.48H69.5797L66.3757 58.608L69.7837 63H68.7517L65.7037 59.04H64.3957V63H63.5557ZM75.5644 63.06C74.9644 63.06 74.4204 62.94 73.9324 62.7C73.4444 62.46 73.0244 62.136 72.6724 61.728C72.3204 61.312 72.0484 60.848 71.8564 60.336C71.6644 59.816 71.5684 59.284 71.5684 58.74C71.5684 58.172 71.6684 57.632 71.8684 57.12C72.0684 56.6 72.3484 56.14 72.7084 55.74C73.0764 55.332 73.5044 55.012 73.9924 54.78C74.4804 54.54 75.0084 54.42 75.5764 54.42C76.1764 54.42 76.7204 54.544 77.2084 54.792C77.6964 55.04 78.1124 55.372 78.4564 55.788C78.8084 56.204 79.0804 56.668 79.2724 57.18C79.4644 57.692 79.5604 58.216 79.5604 58.752C79.5604 59.32 79.4604 59.864 79.2604 60.384C79.0604 60.896 78.7804 61.356 78.4204 61.764C78.0604 62.164 77.6364 62.48 77.1484 62.712C76.6604 62.944 76.1324 63.06 75.5644 63.06ZM72.4084 58.74C72.4084 59.204 72.4844 59.652 72.6364 60.084C72.7884 60.508 73.0044 60.888 73.2844 61.224C73.5644 61.552 73.8964 61.816 74.2804 62.016C74.6724 62.208 75.1004 62.304 75.5644 62.304C76.0524 62.304 76.4884 62.204 76.8724 62.004C77.2644 61.796 77.5964 61.524 77.8684 61.188C78.1484 60.844 78.3604 60.46 78.5044 60.036C78.6484 59.612 78.7204 59.18 78.7204 58.74C78.7204 58.276 78.6444 57.832 78.4924 57.408C78.3404 56.984 78.1204 56.604 77.8324 56.268C77.5524 55.932 77.2204 55.668 76.8364 55.476C76.4524 55.284 76.0284 55.188 75.5644 55.188C75.0844 55.188 74.6484 55.288 74.2564 55.488C73.8724 55.688 73.5404 55.96 73.2604 56.304C72.9884 56.64 72.7764 57.02 72.6244 57.444C72.4804 57.868 72.4084 58.3 72.4084 58.74ZM90.1321 63V56.064L87.0481 61.452H86.5201L83.4241 56.064V63H82.5841V54.48H83.4481L86.7721 60.312L90.1201 54.48H90.9721V63H90.1321ZM94.5475 63V54.48H100.98V63H100.14V55.224H95.3875V63H94.5475ZM110.314 63V55.224H106.834L106.786 57.024C106.746 58.2 106.662 59.176 106.534 59.952C106.406 60.728 106.226 61.34 105.994 61.788C105.762 62.228 105.478 62.544 105.142 62.736C104.806 62.92 104.406 63.012 103.942 63.012V62.268C104.254 62.268 104.53 62.188 104.77 62.028C105.01 61.868 105.214 61.588 105.382 61.188C105.55 60.788 105.682 60.236 105.778 59.532C105.882 58.82 105.95 57.92 105.982 56.832L106.054 54.48H111.142V63H110.314ZM120.437 62.256V63H114.713V54.48H120.329V55.224H115.553V58.296H119.717V59.004H115.553V62.256H120.437ZM123.465 63V54.48H124.305V58.272H125.589L128.517 54.48H129.489L126.285 58.608L129.693 63H128.661L125.613 59.04H124.305V63H123.465ZM131.478 58.68C131.478 58.16 131.566 57.652 131.742 57.156C131.926 56.652 132.19 56.196 132.534 55.788C132.878 55.372 133.302 55.044 133.806 54.804C134.31 54.556 134.882 54.432 135.522 54.432C136.282 54.432 136.93 54.608 137.466 54.96C138.01 55.304 138.41 55.748 138.666 56.292L138.006 56.7C137.822 56.324 137.59 56.028 137.31 55.812C137.03 55.588 136.73 55.428 136.41 55.332C136.098 55.236 135.786 55.188 135.474 55.188C134.962 55.188 134.51 55.292 134.118 55.5C133.726 55.7 133.394 55.972 133.122 56.316C132.858 56.652 132.658 57.032 132.522 57.456C132.386 57.872 132.318 58.296 132.318 58.728C132.318 59.2 132.398 59.652 132.558 60.084C132.718 60.516 132.942 60.9 133.23 61.236C133.518 61.564 133.854 61.828 134.238 62.028C134.63 62.22 135.054 62.316 135.51 62.316C135.83 62.316 136.158 62.26 136.494 62.148C136.83 62.036 137.142 61.864 137.43 61.632C137.726 61.4 137.962 61.1 138.138 60.732L138.834 61.092C138.658 61.516 138.386 61.876 138.018 62.172C137.65 62.468 137.238 62.692 136.782 62.844C136.334 62.996 135.894 63.072 135.462 63.072C134.878 63.072 134.342 62.948 133.854 62.7C133.366 62.444 132.942 62.108 132.582 61.692C132.23 61.268 131.958 60.796 131.766 60.276C131.574 59.748 131.478 59.216 131.478 58.68Z" fill="white"/>
<defs>
<filter id="filter0_d_1_14" x="0.441406" y="12.1094" width="137.586" height="33.0664" filterUnits="userSpaceOnUse" color-interpolation-filters="sRGB">
<feFlood flood-opacity="0" result="BackgroundImageFix"/>
<feColorMatrix in="SourceAlpha" type="matrix" values="0 0 0 0 0 0 0 0 0 0 0 0 0 0 0 0 0 0 127 0" result="hardAlpha"/>
<feOffset dy="4"/>
<feGaussianBlur stdDeviation="2"/>
<feComposite in2="hardAlpha" operator="out"/>
<feColorMatrix type="matrix" values="0 0 0 0 0 0 0 0 0 0 0 0 0 0 0 0 0 0 0.25 0"/>
<feBlend mode="normal" in2="BackgroundImageFix" result="effect1_dropShadow_1_14"/>
<feBlend mode="normal" in="SourceGraphic" in2="effect1_dropShadow_1_14" result="shape"/>
</filter>
</defs>
</svg>
